<?xml version="1.0" encoding="UTF-8"?>
<svg id="Layer_1" xmlns="http://www.w3.org/2000/svg" version="1.1" viewBox="0 0 450.1 100.7">
  <!-- Generator: Adobe Illustrator 29.2.1, SVG Export Plug-In . SVG Version: 2.1.0 Build 116)  -->
  <defs>
    <style>
      .st0 {
        fill: #231f20;
      }

      .st1 {
        fill: #507abd;
      }
    </style>
  </defs>
  <g>
    <path class="st1" d="M209.9,84.2l27-60.9h13.9l27.3,60.9h-14.8l-22.3-53.7h5.7l-22.3,53.7h-14.4ZM223.6,71.2l3.6-10.7h31.5l3.7,10.7h-38.7Z"/>
    <path class="st1" d="M298.9,84.9c-4,0-7.8-.5-11.5-1.4-3.7-1-6.6-2.2-8.8-3.6l4.4-9.7c2.2,1.3,4.8,2.3,7.7,3.2,2.9.8,5.8,1.3,8.7,1.3s5.3-.4,6.7-1.1c1.3-.8,2-1.8,2-3.1s-.5-1.9-1.5-2.5c-1-.5-2.3-1-4-1.3-1.7-.3-3.5-.6-5.5-.9-2-.3-4-.7-6-1.2-2-.5-3.9-1.3-5.6-2.2-1.7-1-3.1-2.3-4.1-4-1-1.7-1.5-3.9-1.5-6.5s.9-5.6,2.6-7.9c1.7-2.3,4.2-4.1,7.4-5.3,3.2-1.3,7-1.9,11.6-1.9s6.5.4,9.8,1.1c3.3.7,6,1.7,8.3,3l-4.6,9.7c-2.2-1.3-4.5-2.2-6.7-2.7-2.3-.5-4.5-.8-6.6-.8-3.1,0-5.4.4-6.8,1.2-1.4.8-2.1,1.9-2.1,3.1s.5,2,1.6,2.7c1,.6,2.4,1.1,4.1,1.3,1.7.3,3.5.6,5.6.9,2,.3,4,.7,6,1.2,2,.5,3.8,1.3,5.5,2.2,1.7,1,3.1,2.3,4.1,4,1,1.7,1.5,3.9,1.5,6.5s-.9,5.4-2.6,7.6c-1.7,2.2-4.2,4-7.5,5.3-3.3,1.3-7.3,1.9-12,1.9Z"/>
    <path class="st1" d="M336.1,30.9c-2.6,0-4.6-.7-6.2-2.2-1.6-1.4-2.3-3.2-2.3-5.4s.8-3.9,2.3-5.4c1.6-1.4,3.6-2.2,6.2-2.2s4.5.7,6.1,2c1.6,1.4,2.4,3.1,2.4,5.3s-.8,4.1-2.3,5.6c-1.6,1.5-3.6,2.2-6.2,2.2ZM329.3,84.2v-46.8h13.6v46.8h-13.6Z"/>
    <path class="st1" d="M371.2,84.9c-4,0-7.8-.5-11.5-1.4-3.7-1-6.6-2.2-8.8-3.6l4.4-9.7c2.2,1.3,4.8,2.3,7.7,3.2,2.9.8,5.8,1.3,8.7,1.3s5.3-.4,6.7-1.1c1.3-.8,2-1.8,2-3.1s-.5-1.9-1.5-2.5c-1-.5-2.3-1-4-1.3-1.7-.3-3.5-.6-5.5-.9-2-.3-4-.7-6-1.2-2-.5-3.9-1.3-5.6-2.2-1.7-1-3.1-2.3-4.1-4-1-1.7-1.5-3.9-1.5-6.5s.9-5.6,2.6-7.9c1.7-2.3,4.2-4.1,7.4-5.3,3.2-1.3,7-1.9,11.6-1.9s6.5.4,9.8,1.1c3.3.7,6,1.7,8.3,3l-4.6,9.7c-2.2-1.3-4.5-2.2-6.7-2.7-2.3-.5-4.5-.8-6.6-.8-3.1,0-5.4.4-6.8,1.2-1.4.8-2.1,1.9-2.1,3.1s.5,2,1.6,2.7c1,.6,2.4,1.1,4.1,1.3,1.7.3,3.5.6,5.6.9,2,.3,4,.7,6,1.2,2,.5,3.8,1.3,5.5,2.2,1.7,1,3.1,2.3,4.1,4,1,1.7,1.5,3.9,1.5,6.5s-.9,5.4-2.6,7.6c-1.7,2.2-4.2,4-7.5,5.3-3.3,1.3-7.3,1.9-12,1.9Z"/>
    <path class="st1" d="M396.1,47.9v-10.4h32.4v10.4h-32.4ZM420.8,84.9c-5.5,0-9.8-1.4-12.9-4.2-3.1-2.8-4.6-7-4.6-12.6V27.1h13.7v40.8c0,2,.5,3.5,1.5,4.6,1,1.1,2.4,1.7,4.1,1.7s4.1-.6,5.6-1.7l3.6,9.6c-1.3,1-3,1.7-4.9,2.2-1.9.5-4,.7-6,.7Z"/>
  </g>
  <g>
    <path class="st0" d="M18.3,84.2V23.4h11.7l25.9,43h-6.2l25.4-43h11.7v60.9h-13.1l-.2-40.6h2.6l-20.5,34.1h-6.3l-20.8-34.1h2.9v40.6h-13.1Z"/>
    <path class="st0" d="M123.6,84.9c-5.3,0-10-1-14-3.1s-7.1-4.9-9.3-8.6c-2.2-3.6-3.3-7.8-3.3-12.4s1.1-8.8,3.2-12.4c2.1-3.7,5.1-6.5,8.9-8.6,3.8-2.1,8.1-3.1,12.8-3.1s8.7,1,12.4,3c3.7,2,6.6,4.8,8.7,8.3,2.1,3.6,3.2,7.9,3.2,13s0,1.1,0,1.8c0,.7-.1,1.3-.2,1.9h-38v-7.9h30.9l-5.3,2.3c0-2.4-.4-4.6-1.4-6.3-1-1.8-2.3-3.2-4.1-4.2-1.7-1-3.8-1.5-6.1-1.5s-4.4.5-6.1,1.5c-1.8,1-3.1,2.4-4.1,4.3-1,1.8-1.5,4-1.5,6.5v2.1c0,2.6.6,4.9,1.7,6.8,1.2,1.9,2.8,3.4,4.8,4.4,2,1,4.5,1.5,7.3,1.5s4.6-.4,6.5-1.1c1.9-.8,3.6-1.9,5.2-3.4l7.2,7.8c-2.1,2.4-4.8,4.3-8.1,5.6-3.2,1.3-7,2-11.2,2Z"/>
    <path class="st0" d="M175.4,84.9c-4.4,0-8.4-1-11.9-3-3.5-2-6.3-4.8-8.3-8.4-2-3.6-3-7.8-3-12.7s1-9.1,3-12.7c2-3.6,4.8-6.4,8.3-8.4,3.5-2,7.5-3,11.9-3s7.4.9,10.3,2.6c3,1.7,5.2,4.4,6.9,7.9,1.6,3.5,2.4,8.1,2.4,13.6s-.8,10-2.3,13.6c-1.6,3.6-3.8,6.2-6.7,8-2.9,1.7-6.5,2.6-10.6,2.6ZM177.6,73.8c2.3,0,4.3-.5,6.1-1.5,1.8-1,3.2-2.5,4.3-4.5,1.1-2,1.6-4.3,1.6-7s-.5-5-1.6-7c-1.1-1.9-2.5-3.4-4.3-4.4-1.8-1-3.8-1.5-6.1-1.5s-4.2.5-6,1.5c-1.8,1-3.2,2.5-4.3,4.4-1.1,1.9-1.6,4.2-1.6,7s.5,5,1.6,7c1.1,2,2.5,3.5,4.3,4.5,1.8,1,3.8,1.5,6,1.5ZM190,84.2v-9.6l.3-13.9-.9-13.8v-27.2h13.6v64.5h-13Z"/>
  </g>
</svg>